<svg xmlns="http://www.w3.org/2000/svg" version="1.1" xmlns:xlink="http://www.w3.org/1999/xlink" width="512" height="512" x="0" y="0" viewBox="0 0 48 48" style="enable-background:new 0 0 512 512" xml:space="preserve" class=""><g><path d="M34.677 35.705A19 19 0 0 0 16.645 2.478a1 1 0 1 0 .771 1.844 17 17 0 1 1-9.1 9.125 1 1 0 0 0-1.844-.774A18.99 18.99 0 0 0 13.33 35.71L9.4 42.5a3 3 0 0 0 5.2 3l4.189-7.246a18.625 18.625 0 0 0 10.43 0L33.4 45.5a3 3 0 1 0 5.2-3zM12.863 44.5a1 1 0 0 1-1.728-1l3.9-6.754a19.137 19.137 0 0 0 1.817.848zm23.64.36a1 1 0 0 1-1.368-.363l-3.992-6.9a19.027 19.027 0 0 0 1.823-.852l3.9 6.754a1 1 0 0 1-.366 1.363z" fill="#03a1dc" opacity="1" data-original="#000000" class=""></path><path d="M12.829 13.276a1 1 0 0 0-1.343.445A13.857 13.857 0 0 0 10 20a13.984 13.984 0 1 0 7.713-12.515 1 1 0 0 0 .894 1.789 12.01 12.01 0 1 1-5.334 5.345 1 1 0 0 0-.444-1.343z" fill="#03a1dc" opacity="1" data-original="#000000" class=""></path><path d="M16.532 16.965a1 1 0 0 0-1.227.7A8.89 8.89 0 0 0 15 20a9 9 0 1 0 9-9 8.886 8.886 0 0 0-2.334.3 1 1 0 0 0 .527 1.93A6.859 6.859 0 0 1 24 13a7 7 0 1 1-7 7 6.9 6.9 0 0 1 .234-1.807 1 1 0 0 0-.702-1.228z" fill="#03a1dc" opacity="1" data-original="#000000" class=""></path><path d="M22.586 21.414a1 1 0 0 0-1.414 1.414 4 4 0 1 0 5.656-5.656 1 1 0 0 0-1.414 1.414 2 2 0 0 1 0 2.828 2.047 2.047 0 0 1-2.828 0z" fill="#03a1dc" opacity="1" data-original="#000000" class=""></path><path d="M9.27 10.719a1.987 1.987 0 0 0 1.41.585c.062 0 .126 0 .188-.009l2.394-.222a2.073 2.073 0 0 0 .327-.06l8.7 8.695a1 1 0 0 0 1.414-1.416L15.008 9.6a1.944 1.944 0 0 0 .061-.345l.211-2.375a1.991 1.991 0 0 0-.58-1.591L11.464 2.05a1.5 1.5 0 0 0-2.555.928l-.158 1.778-1.8.167a1.5 1.5 0 0 0-.92 2.555zm.5-4.049a1 1 0 0 0 .9-.907l.137-1.542L13.288 6.7l-.211 2.379-2.394.221L8.2 6.816z" fill="#03a1dc" opacity="1" data-original="#000000" class=""></path></g></svg>