<svg xmlns="http://www.w3.org/2000/svg" version="1.1" xmlns:xlink="http://www.w3.org/1999/xlink" width="512" height="512" x="0" y="0" viewBox="0 0 512.001 512" style="enable-background:new 0 0 512 512" xml:space="preserve"><g><path d="m508.3 483.016-.417-.547c-19.352-25.246-30.008-56.668-30.008-88.477V310.91c0-14.953-5.824-29.015-16.398-39.59l-56.422-56.422c1.918-5.625.656-12.101-3.82-16.578l-38.489-38.488 64.36-64.36 18.964 18.966a13.527 13.527 0 0 0 9.621 3.996h.004c5.73 0 10.742-3.457 12.766-8.809l29.562-78.098a13.612 13.612 0 0 0-1.515-12.554c-2.563-3.707-6.75-5.922-11.203-5.922-1.653 0-3.285.304-4.86.898l-78.097 29.559a13.6 13.6 0 0 0-8.504 9.887 13.588 13.588 0 0 0 3.691 12.507L416.5 84.867l-64.36 64.356-38.488-38.485a15.97 15.97 0 0 0-11.367-4.71c-1.805 0-3.558.316-5.219.882l-56.414-56.414c-10.574-10.574-24.636-16.398-39.593-16.398h-83.075C86.172 34.098 54.75 23.44 29.5 4.086l-.43-.328C21.863-1.77 11.63-1.132 5.266 5.23c-7.02 7.02-7.02 18.446 0 25.47l4.816 4.816c14.191 14.191 30.574 25.394 48.387 33.3l101.726 101.727c1.465 1.465 3.387 2.195 5.305 2.195s3.84-.73 5.305-2.195a7.502 7.502 0 0 0 0-10.61L89.84 78.974a161.906 161.906 0 0 0 33.683 3.53h72.579a19.415 19.415 0 0 1 13.828 5.731l52.918 52.918c-1.918 5.621-.657 12.098 3.816 16.578l38.488 38.485-49.035 49.035-65.883-65.883a7.504 7.504 0 0 0-10.605 0 7.502 7.502 0 0 0 0 10.61l65.879 65.882-73.867 73.868a23.567 23.567 0 0 0-6.055-2.032l-31.227-5.906a22.662 22.662 0 0 0-4.234-.398c-6.082 0-11.8 2.367-16.102 6.672L63.77 378.316a14.98 14.98 0 0 0-3.735 15.047 14.989 14.989 0 0 0 11.563 10.332l30.847 5.836 5.84 30.852c1.34 7.086 7.563 12.23 14.793 12.23 3.984 0 7.742-1.562 10.582-4.406l50.258-50.254a22.75 22.75 0 0 0 6.27-20.336l-5.907-31.226a23.717 23.717 0 0 0-2.031-6.055l73.867-73.867 187.04 187.039c7.905 17.812 19.113 34.195 33.304 48.39l4.816 4.813a17.878 17.878 0 0 0 12.735 5.273c4.808 0 9.332-1.87 12.73-5.273 6.363-6.367 7.035-16.55 1.559-23.695zM482.919 29.055l-27.734 73.28-22.77-22.765c0-.004 0-.004-.004-.007l-.004-.004-22.77-22.766zm-358.285 309.61a7.83 7.83 0 0 1 5.496-2.278c.48 0 .969.047 1.441.136l27.98 5.293L106.368 395l-31.992-6.078zm-1.555 106.444-.055-7.48a.186.186 0 0 1 .055-.02zm52.371-64.707a7.748 7.748 0 0 1-2.14 6.938l-50.286 50.285-6.05-32.016 53.183-53.183zM366.375 234.7c-.262.262-.559.317-.762.317s-.5-.055-.758-.317l-13.043-13.043 37.293-14.25 1.52 1.52c.27.27.348.644.27.988a8.143 8.143 0 0 0-.77.664 7.56 7.56 0 0 0-1.184 1.55zm-75.96-74.441 37.292-14.25 19.082 19.082-37.297 14.246zm30.698 30.699 37.293-14.25 19.082 19.082-37.297 14.25zm-5.023-56.566-37.293 14.25-1.524-1.524a1.077 1.077 0 0 1 0-1.52l24.254-24.253c.258-.258.555-.313.758-.313s.5.055.762.313zM196.102 67.504h-72.575c-19.949 0-39.28-4-57.097-11.606a7.363 7.363 0 0 0-1.809-.773C48.45 47.957 33.574 37.789 20.687 24.906l-4.812-4.816a3.006 3.006 0 0 1 0-4.254c1.094-1.098 2.77-1.168 4.074-.168l.426.324c27.852 21.352 62.516 33.106 97.61 33.106h83.077c10.95 0 21.243 4.265 28.985 12.007l55.25 55.254-13.012 13.012-51.746-51.746c-6.527-6.527-15.207-10.121-24.437-10.121zm70.625 188.351 49.035-49.035 38.484 38.489a15.973 15.973 0 0 0 11.367 4.707c1.805 0 3.563-.313 5.219-.883l52.906 52.91a19.428 19.428 0 0 1 5.73 13.828v72.574c0 11.461 1.204 22.735 3.532 33.688zm229.41 240.243a3.006 3.006 0 0 1-4.254 0l-4.813-4.813c-12.87-12.867-23.027-27.723-30.195-43.87a7.433 7.433 0 0 0-.82-1.915c-7.59-17.8-11.586-37.117-11.586-57.055l.004-72.574c0-9.23-3.598-17.906-10.125-24.437l-51.746-51.747 13.011-13.011 55.254 55.25c7.742 7.742 12.008 18.039 12.008 28.984v83.082c0 35.09 11.754 69.75 33.102 97.606l.421.547a3.012 3.012 0 0 1-.261 3.953zm0 0" fill="#03a1dc" opacity="1" data-original="#000000"></path></g></svg>