<svg xmlns="http://www.w3.org/2000/svg" version="1.1" xmlns:xlink="http://www.w3.org/1999/xlink" width="512" height="512" x="0" y="0" viewBox="0 0 512 512" style="enable-background:new 0 0 512 512" xml:space="preserve" class=""><g><path d="m491.578 192.845-32-16a8 8 0 0 0-2.733-.79l-.885-8.851a7.988 7.988 0 0 0-2.1-4.647l-104-112A8 8 0 0 0 336 56v3.28a103.79 103.79 0 0 0 2.134 21l-74.9 55.195A48 48 0 0 0 168 144v16h-40a8 8 0 0 0-3.354.737l-87.667 40.474a36.163 36.163 0 0 0 6.455 67.914l8.513 2.112a142.653 142.653 0 0 0 79.721 39.082l4.754.68 7.459 119.35-4.3 8.607A110.224 110.224 0 0 0 128 488a8 8 0 0 0 8 8h128a8 8 0 0 0 8-8 110.224 110.224 0 0 0-11.578-49.044l-4.128-8.256 15.613-101.484A7.982 7.982 0 0 0 272 328v-9.178l59.85 93.143A104.72 104.72 0 0 0 328 440a8 8 0 0 0 13.657 5.657l112-112a7.83 7.83 0 0 0 .491-.541c.055-.066.1-.136.157-.2.095-.123.191-.245.278-.373.063-.091.12-.186.18-.279.069-.11.138-.219.2-.332s.116-.216.171-.325.105-.211.154-.319.1-.235.149-.355.082-.215.119-.323c.042-.123.083-.245.12-.37s.062-.235.091-.354.059-.237.083-.357c.031-.161.053-.324.074-.487.011-.082.027-.162.035-.245v-.007l2.488-25.186a7.979 7.979 0 0 0 4.706-4.023l12-24a8.009 8.009 0 0 0 .737-4.893l-4-24A8 8 0 0 0 464 240h-.76l-1.779-17.786 30.117-15.059a8 8 0 0 0 0-14.31ZM440.752 320h-22.993l4.8-24h.456l19.623 4.906Zm-101.783 73.445L286.253 311.4A102.853 102.853 0 0 0 330.37 296h75.872l-5.611 28.056-41.967 41.967a104.026 104.026 0 0 0-19.695 27.422ZM241.136 424h-81.62l-6.451-103.2 18.135 13.6a8 8 0 0 0 6.74 1.361l30.06-7.515 30.06 7.515a8 8 0 0 0 6.378-1.105L256 326.948v.44ZM129.679 216.322 168 221.815V240h-15.015l-44.307-11.077ZM204.944 192h15.743l8 8-8 8h-25.374l2.344-2.343a7.986 7.986 0 0 0 1.5-2.079Zm38.37 16H248v7.166l-10.781-1.072Zm0-16-12.646-12.646L248 166.583V192Zm-32.242 32 .4.615.07.109L221.353 240H184v-16h27.072ZM272 256h150.241l-4.8 24H328a8 8 0 0 0-4.438 1.344 86.972 86.972 0 0 1-47.221 14.634L272 289.223Zm-16 8.323L250.652 256H256Zm0 29.6v13.8l-17.493 11.657L216 313.754V296a8 8 0 0 0-16 0v17.754l-22.246 5.561-25.165-18.873L158.938 256h72.7ZM240.371 240l-6.53-10.162 21.368 2.123c.265.026.528.039.791.039a8 8 0 0 0 8-8v-16h143.841l6.4 32ZM264 192v-37.208l78.9-58.143a104.776 104.776 0 0 0 19.523 32.1l38.159 42.94L404.641 192Zm153.759-16h23l1.6 16h-21.4Zm11.9-16h-18.066l-37.213-41.875a88.133 88.133 0 0 1-19.527-36.576q-.378-1.424-.706-2.864ZM216 112a31.879 31.879 0 0 1 32 32v2.708L208.251 176h-5.829L184 163.719V144a32.036 32.036 0 0 1 32-32ZM61.657 258.343a8 8 0 0 0-3.73-2.108l-10.592-2.628a20.162 20.162 0 0 1-3.661-37.864L129.758 176h43.82l16.109 10.739-4.262 8.522-11.281 11.281-45.009-6.461c-.051-.007-.086 0-.135-.011a7.961 7.961 0 0 0-5.116 1.07l-33.836 20.3c-.165.084-.331.165-.492.262l-18.127 10.86a8 8 0 1 0 8.222 13.725l9.574-5.734 53.835 13.458-5.849 40.938-3.28-.469a126.816 126.816 0 0 1-72.274-36.137ZM144.347 480a94.206 94.206 0 0 1 9.542-33.889l3.055-6.111h86.112l3.055 6.111A94.206 94.206 0 0 1 255.653 480Zm203.868-66.958a71.633 71.633 0 0 1 2.538-6.943 88.126 88.126 0 0 1 19.225-28.762L411.314 336h17.373l-81.851 81.851q.621-2.41 1.379-4.809Zm103.5-126.359-18.374-4.594L438.559 256h18.664l2.459 14.749ZM432 240h-1.441l-6.4-32h19.8l3.2 32Zm32-36.944v-6.112l6.111 3.056Z" fill="#03a1dc" opacity="1" data-original="#000000" class=""></path><path d="M328 160h16v16h-16zM280 160h32v16h-32zM20.751 168.69l18-8 6.499 14.62-18 8zM60.751 150.91l32-14.221 6.498 14.62-32 14.223z" fill="#03a1dc" opacity="1" data-original="#000000" class=""></path></g></svg>