<svg xmlns="http://www.w3.org/2000/svg" version="1.1" xmlns:xlink="http://www.w3.org/1999/xlink" width="512" height="512" x="0" y="0" viewBox="0 0 520 520" style="enable-background:new 0 0 512 512" xml:space="preserve" class=""><g><path d="M70 240c16.542 0 30-13.458 30-30s-13.458-30-30-30-30 13.458-30 30 13.458 30 30 30zm0-40c5.514 0 10 4.486 10 10s-4.486 10-10 10-10-4.486-10-10 4.486-10 10-10zM420 230c0 16.542 13.458 30 30 30s30-13.458 30-30-13.458-30-30-30-30 13.458-30 30zm30-10c5.514 0 10 4.486 10 10s-4.486 10-10 10-10-4.486-10-10 4.486-10 10-10z" fill="#03a1dc" opacity="1" data-original="#000000"></path><path d="M480 420H360.408l7.416-28.636 42.48-1.294c5.52-.168 9.858-4.779 9.69-10.3-.168-5.52-4.747-9.834-10.3-9.69l-45.016 1.37-9.473-11.718 30.135-.917c5.521-.168 9.859-4.779 9.691-10.299-.168-5.521-4.752-9.841-10.299-9.691l-45.313 1.379-9.472-11.718 30.43-.926c5.521-.168 9.859-4.779 9.691-10.299-.168-5.521-4.802-9.848-10.299-9.691l-45.609 1.388-41.304-51.095L409.971 88.248 410 124.04c.005 5.52 4.48 9.992 10 9.992h.008c5.523-.004 9.997-4.485 9.992-10.008-.06-69.462-.011-64.283-.153-65.367-.685-5.062-5.01-8.652-9.915-8.652-2.052.006.815-.351-64.646 14.349-5.387 1.217-8.768 6.57-7.551 11.958 1.216 5.387 6.569 8.769 11.957 7.551l34.386-7.767L260 241.957 125.922 76.095l34.385 7.767c5.388 1.22 10.741-2.164 11.958-7.551s-2.164-10.741-7.551-11.958l-62.458-14.107c-6.155-1.413-12.166 3.286-12.201 9.71 0 2.825-.054 63.898-.054 64.067-.004 5.523 4.469 10.004 9.992 10.008h.008c5.519 0 9.996-4.472 10-9.992l.029-35.791 137.112 169.614-41.304 51.095c-58.404-1.775-43.414-1.393-45.919-1.393-5.382 0-9.825 4.279-9.99 9.696-.167 5.52 4.171 10.131 9.691 10.299l30.431.926-9.472 11.718-45.313-1.379c-5.503-.146-10.132 4.17-10.3 9.691-.167 5.52 4.171 10.131 9.691 10.299l30.135.917-9.473 11.718-45.016-1.37c-5.481-.147-10.132 4.17-10.3 9.69s4.171 10.132 9.691 10.3l42.48 1.294L159.592 420H40c-5.523 0-10 4.478-10 10s4.477 10 10 10h440c5.522 0 10-4.478 10-10s-4.478-10-10-10zm-309.079-36.034 9.388-11.614 7.483 28.9c1.167 4.506 5.226 7.495 9.674 7.495 6.534 0 11.328-6.172 9.688-12.509l-11.197-43.243 9.388-11.614 7.41 28.615c1.167 4.506 5.226 7.495 9.674 7.495 6.534 0 11.328-6.172 9.688-12.509l-11.123-42.958L260 273.77l39.008 48.254-11.123 42.959c-1.385 5.347 1.827 10.803 7.174 12.188 5.361 1.389 10.807-1.844 12.188-7.174l7.409-28.615 9.389 11.613-11.197 43.244c-1.646 6.352 3.165 12.509 9.688 12.509 4.448 0 8.507-2.989 9.674-7.495l7.483-28.901 9.389 11.614L339.749 420H180.251zM400 450H120c-5.523 0-10 4.478-10 10s4.477 10 10 10h280c5.522 0 10-4.478 10-10s-4.478-10-10-10z" fill="#03a1dc" opacity="1" data-original="#000000"></path></g></svg>