<svg xmlns="http://www.w3.org/2000/svg" version="1.1" xmlns:xlink="http://www.w3.org/1999/xlink" width="512" height="512" x="0" y="0" viewBox="0 0 64 64" style="enable-background:new 0 0 512 512" xml:space="preserve" class=""><g><path d="M56.94 4.16h-3.11a1 1 0 0 0 0 2h3.11A1.061 1.061 0 0 1 58 7.22v2.082H11.29V7.22a1.061 1.061 0 0 1 1.06-1.06h37.48a1 1 0 0 0 0-2H12.35a3.063 3.063 0 0 0-3.06 3.06v7.72a1 1 0 0 0 2 0v-3.638h14.345s.001 29.59 0 34.617H11.29V34.91h1.67a2.002 2.002 0 0 0 2-2v-6.69a2.002 2.002 0 0 0-2-2h-1.67v-5.28a1 1 0 0 0-2 0s.005 21.941 0 26.98H6.03A2.033 2.033 0 0 0 4 47.95v3.11a2.033 2.033 0 0 0 2.03 2.03h2.818v5.752a1 1 0 0 0 1 1h3.137a1 1 0 0 0 .958-.713l1.809-6.039h3.508a1 1 0 0 0 0-2L6 51.06l.03-3.14H58v2.11a1.061 1.061 0 0 1-1.06 1.06H23.26a1 1 0 0 0 0 2h26.679l1.809 6.038a1.001 1.001 0 0 0 .958.713h3.138a1 1 0 0 0 1-1v-5.752A3.067 3.067 0 0 0 60 50.03V7.22a3.063 3.063 0 0 0-3.06-3.06ZM11.29 26.218h1.67l.002 6.69H11.29Zm-.442 26.872h2.815l-1.422 4.75h-1.393Zm43.996 4.75H53.45l-1.423-4.75h2.817ZM43.82 26.219h1.67l.002 6.69H43.82Zm-16.186 0h1.674l.001 6.69h-1.674ZM58 45.919H43.82V41.4a1 1 0 0 0-2 0v4.52H27.635V34.91h1.674a2.002 2.002 0 0 0 2-2v-6.69a2.002 2.002 0 0 0-2-2h-1.674V11.302H41.82c0 7.105-.004 19.088 0 26.097a1 1 0 0 0 2 0v-2.49h1.67a2.002 2.002 0 0 0 2-2v-6.69a2.002 2.002 0 0 0-2-2h-1.67V11.302H58Z" fill="#03a1dc" opacity="1" data-original="#000000" class=""></path><path d="M21.803 19.413a2.002 2.002 0 0 0 2-2v-2.179a2.002 2.002 0 0 0-2-2h-6.519a2.002 2.002 0 0 0-2 2v2.179a2.002 2.002 0 0 0 2 2Zm-6.519-4.179h6.519v2.179h-6.519ZM37.985 13.234h-6.518a2.002 2.002 0 0 0-2 2v2.179a2.002 2.002 0 0 0 2 2h6.518a2.002 2.002 0 0 0 2-2v-2.179a2.002 2.002 0 0 0-2-2Zm-6.518 4.179v-2.179h6.518l.001 2.179ZM47.65 19.413h6.518a2.002 2.002 0 0 0 2-2v-2.179a2.002 2.002 0 0 0-2-2h-6.519a2.002 2.002 0 0 0-2 2v2.179a2.002 2.002 0 0 0 2 2Zm0-4.179h6.518v2.179h-6.52Z" fill="#03a1dc" opacity="1" data-original="#000000" class=""></path></g></svg>