<svg xmlns="http://www.w3.org/2000/svg" version="1.1" xmlns:xlink="http://www.w3.org/1999/xlink" width="512" height="512" x="0" y="0" viewBox="0 0 512 512" style="enable-background:new 0 0 512 512" xml:space="preserve" class=""><g><circle cx="380.25" cy="189.925" r="31.062" style="stroke-width:15;stroke-linecap:round;stroke-linejoin:round;stroke-miterlimit:10;" fill="none" stroke="#03a1dc" stroke-width="15" stroke-linecap="round" stroke-linejoin="round" stroke-miterlimit="10" data-original="#000000" class="" opacity="1"></circle><circle cx="256" cy="189.925" r="31.062" style="stroke-width:15;stroke-linecap:round;stroke-linejoin:round;stroke-miterlimit:10;" fill="none" stroke="#03a1dc" stroke-width="15" stroke-linecap="round" stroke-linejoin="round" stroke-miterlimit="10" data-original="#000000" class="" opacity="1"></circle><circle cx="131.75" cy="189.925" r="31.062" style="stroke-width:15;stroke-linecap:round;stroke-linejoin:round;stroke-miterlimit:10;" fill="none" stroke="#03a1dc" stroke-width="15" stroke-linecap="round" stroke-linejoin="round" stroke-miterlimit="10" data-original="#000000" class="" opacity="1"></circle><path d="M442.375 270.312v-20.203c0-16.083-13.038-29.121-29.121-29.121h-66.008c-16.083 0-29.121 13.038-29.121 29.121 0-16.083-13.038-29.121-29.121-29.121h-66.008c-16.083 0-29.121 13.038-29.121 29.121 0-16.083-13.038-29.121-29.121-29.121H98.746c-16.083 0-29.121 13.038-29.121 29.121v20.203" style="stroke-width:15;stroke-linecap:round;stroke-linejoin:round;stroke-miterlimit:10;" fill="none" stroke="#03a1dc" stroke-width="15" stroke-linecap="round" stroke-linejoin="round" stroke-miterlimit="10" data-original="#000000" class="" opacity="1"></path><circle cx="69.625" cy="301.374" r="31.063" style="stroke-width:15;stroke-linecap:round;stroke-linejoin:round;stroke-miterlimit:10;" fill="none" stroke="#03a1dc" stroke-width="15" stroke-linecap="round" stroke-linejoin="round" stroke-miterlimit="10" data-original="#000000" class="" opacity="1"></circle><path d="M87.12 423.68h44.63v-62.12c0-16.09-13.04-29.12-29.12-29.12H36.62c-16.08 0-29.12 13.03-29.12 29.12v62.12h44.62M187.753 331.843c-14.223-2.849-24.941-15.405-24.941-30.467 0-17.163 13.91-31.062 31.063-31.062a31.079 31.079 0 0 1 14.91 3.798M207.512 423.683H131.75v-62.125c0-16.083 13.038-29.121 29.121-29.121H186.3M303.215 274.112a31.079 31.079 0 0 1 14.91-3.798c17.153 0 31.062 13.9 31.062 31.062 0 15.062-10.718 27.618-24.941 30.467M304.488 423.683h75.762v-62.125c0-16.083-13.038-29.121-29.121-29.121H325.7" style="stroke-width:15;stroke-linecap:round;stroke-linejoin:round;stroke-miterlimit:10;" fill="none" stroke="#03a1dc" stroke-width="15" stroke-linecap="round" stroke-linejoin="round" stroke-miterlimit="10" data-original="#000000" class="" opacity="1"></path><circle cx="442.375" cy="301.374" r="31.062" style="stroke-width:15;stroke-linecap:round;stroke-linejoin:round;stroke-miterlimit:10;" fill="none" stroke="#03a1dc" stroke-width="15" stroke-linecap="round" stroke-linejoin="round" stroke-miterlimit="10" data-original="#000000" class="" opacity="1"></circle><path d="M459.88 423.68h44.62v-62.12c0-16.09-13.04-29.12-29.12-29.12h-66.01c-16.08 0-29.12 13.03-29.12 29.12v62.12h44.63M242.868 504.5l-7.071-80.813M269.132 504.5l7.071-80.813M276.203 423.687l28.285 32.321-7.294 22.224 4.263 26.264M235.797 423.687l-28.285 32.321 7.294 22.224-4.263 26.264" style="stroke-width:15;stroke-linecap:round;stroke-linejoin:round;stroke-miterlimit:10;" fill="none" stroke="#03a1dc" stroke-width="15" stroke-linecap="round" stroke-linejoin="round" stroke-miterlimit="10" data-original="#000000" class="" opacity="1"></path><path d="M276.203 423.687h28.285c17.85 0 32.325 14.466 32.325 32.325V504.5H175.187v-48.488c0-17.86 14.476-32.325 32.325-32.325h28.285" style="stroke-width:15;stroke-linecap:round;stroke-linejoin:round;stroke-miterlimit:10;" fill="none" stroke="#03a1dc" stroke-width="15" stroke-linecap="round" stroke-linejoin="round" stroke-miterlimit="10" data-original="#000000" class="" opacity="1"></path><path d="M276.2 398.76v24.93l-20.2 20.2-20.2-20.2v-24.93" style="stroke-width:15;stroke-linecap:round;stroke-linejoin:round;stroke-miterlimit:10;" fill="none" stroke="#03a1dc" stroke-width="15" stroke-linecap="round" stroke-linejoin="round" stroke-miterlimit="10" data-original="#000000" class="" opacity="1"></path><path d="M301.457 358.022c0 25.105-20.352 45.457-45.457 45.457h0c-25.105 0-45.457-20.352-45.457-45.457M311.559 358.022h-10.102v-32.325h10.102c8.926 0 16.163 7.236 16.163 16.163v0c0 8.926-7.237 16.162-16.163 16.162zM200.441 358.022h10.102v-32.325h-10.102c-8.926 0-16.163 7.236-16.163 16.163v0c0 8.926 7.237 16.162 16.163 16.162z" style="stroke-width:15;stroke-linecap:round;stroke-linejoin:round;stroke-miterlimit:10;" fill="none" stroke="#03a1dc" stroke-width="15" stroke-linecap="round" stroke-linejoin="round" stroke-miterlimit="10" data-original="#000000" class="" opacity="1"></path><path d="M256.074 247.841h0c30.656.041 55.485 24.903 55.485 55.559v22.297h-10.102l-6.184 2.61a25.015 25.015 0 0 1-28.958-7.051l-7.208-8.667a4.04 4.04 0 0 0-6.213 0l-7.208 8.667a25.015 25.015 0 0 1-28.958 7.051l-6.184-2.61h-10.102V303.4c0-30.656 24.83-55.518 55.485-55.559h0M318.125 250.108v20.204M193.875 250.108v20.204M219.74 85.96l8.54 31.88 41.1-11.01M266 39.38l51.48-13.79-12.72 37.58 29.8 26.19-31.37 8.41" style="stroke-width:15;stroke-linecap:round;stroke-linejoin:round;stroke-miterlimit:10;" fill="none" stroke="#03a1dc" stroke-width="15" stroke-linecap="round" stroke-linejoin="round" stroke-miterlimit="10" data-original="#000000" class="" opacity="1"></path><path d="M157.848 20.614h110.033v66.02H157.848z" style="stroke-width:15;stroke-linecap:round;stroke-linejoin:round;stroke-miterlimit:10;" transform="rotate(-14.999 212.88 53.627)" fill="none" stroke="#03a1dc" stroke-width="15" stroke-linecap="round" stroke-linejoin="round" stroke-miterlimit="10" data-original="#000000" class="" opacity="1"></path><path d="m151.179 35.979 51.729 193.057" style="stroke-width:15;stroke-linecap:round;stroke-linejoin:round;stroke-miterlimit:10;" fill="none" stroke="#03a1dc" stroke-width="15" stroke-linecap="round" stroke-linejoin="round" stroke-miterlimit="10" data-original="#000000" class="" opacity="1"></path></g></svg>