<svg xmlns="http://www.w3.org/2000/svg" version="1.1" xmlns:xlink="http://www.w3.org/1999/xlink" width="512" height="512" x="0" y="0" viewBox="0 0 512 511" style="enable-background:new 0 0 512 512" xml:space="preserve" class=""><g><path d="M106.32 275.754c.305 0 .614-.02.922-.055l17.457-2.133a7.512 7.512 0 1 0-1.82-14.91l-17.457 2.13a7.51 7.51 0 0 0-6.547 8.366 7.511 7.511 0 0 0 7.445 6.602zm0 0" fill="#03a1dc" opacity="1" data-original="#000000" class=""></path><path d="M511.852 92.148a11.998 11.998 0 0 0-8.18-9.574l-35.387-11.469-15.445-21.324.125-37.191a11.984 11.984 0 0 0-6.547-10.758 11.986 11.986 0 0 0-12.555.969l-61.87 44.824a11.958 11.958 0 0 0-4.966 9.316l-1.543 43.293-46.359 33.262c-25.547-27.504-59.375-47.223-97.477-55.125V46.945c0-20.425-16.62-37.043-37.046-37.043h-.813c-20.426 0-37.043 16.618-37.043 37.043v31.399a182.193 182.193 0 0 0-41.723 14.035 7.512 7.512 0 0 0-3.546 10.012c1.785 3.746 6.265 5.332 10.015 3.55 22.79-10.867 47.25-16.379 72.703-16.379 48.22 0 91.774 20.29 122.618 52.766l-22.579 16.2-1.867.226c-25.308-24.86-59.976-40.215-98.172-40.215-50.398 0-94.652 26.742-119.363 66.77l-19.52 2.382c-8.093.989-13.87 8.375-12.882 16.465l17.586 144.07a14.686 14.686 0 0 0 5.566 9.848 14.657 14.657 0 0 0 10.898 3.031l19.555-2.386c25.309 24.855 59.969 40.219 98.16 40.219 50.399 0 94.649-26.743 119.364-66.77l19.523-2.383c3.918-.48 7.418-2.457 9.852-5.566s3.507-6.98 3.027-10.899l-15.149-124.113 13.004-9.328c12.47 23.562 19.555 50.394 19.555 78.86 0 93.28-75.89 169.171-169.176 169.171-93.28 0-169.172-75.89-169.172-169.172 0-27.086 6.207-52.957 18.446-76.898 11.68-22.844 28.73-43.078 49.308-58.516a7.513 7.513 0 0 0-9.016-12.02c-22.398 16.805-40.956 38.829-53.671 63.7C6.758 201.078 0 229.25 0 258.738c0 55.364 24.555 105.098 63.344 138.89l-29.84 47.36c-5.234 8.301-6.918 18.145-4.746 27.715 2.172 9.57 7.937 17.723 16.242 22.953a36.53 36.53 0 0 0 19.523 5.645c12.211 0 24.165-6.07 31.141-17.14l31.649-50.227c17.921 5.832 37.039 9 56.882 9s38.961-3.164 56.883-9l31.649 50.226c6.976 11.07 18.93 17.14 31.14 17.14 6.692 0 13.461-1.823 19.528-5.644 8.3-5.23 14.07-13.383 16.242-22.953s.484-19.414-4.746-27.715l-29.84-47.36c38.789-33.792 63.344-83.526 63.344-138.89 0-31.73-8.086-61.597-22.274-87.687l7.91-5.676a7.51 7.51 0 0 0 1.727-10.48 7.515 7.515 0 0 0-10.485-1.727L205.008 253.797c-3.61 2.594-8.672 1.773-11.285-1.828a8.062 8.062 0 0 1-1.438-6.055 8.05 8.05 0 0 1 3.278-5.285l179.433-128.727a7.504 7.504 0 0 0 2.254-1.101l66.395-48.106 9.488 13.098-79.367 56.937a7.506 7.506 0 0 0-1.723 10.48 7.507 7.507 0 0 0 10.48 1.728l9.547-6.852 42.676 12.328a11.956 11.956 0 0 0 10.406-1.816l61.868-44.82a11.986 11.986 0 0 0 4.832-11.63zM206.625 75.91a184.873 184.873 0 0 0-22.43-1.367c-7.562 0-15.039.46-22.425 1.352v-28.95c0-12.14 9.878-22.02 22.02-22.02h.812c12.144 0 22.023 9.88 22.023 22.02zM82.957 476.148c-6.387 10.13-19.816 13.18-29.95 6.797a21.589 21.589 0 0 1-9.6-13.566 21.596 21.596 0 0 1 2.804-16.383l28.93-45.914a184.233 184.233 0 0 0 37.785 21.5zm239.223-23.152a21.561 21.561 0 0 1 2.804 16.383c-1.28 5.656-4.691 10.473-9.597 13.566-10.13 6.383-23.567 3.332-29.95-6.797l-29.972-47.566a184.027 184.027 0 0 0 37.785-21.5zm-137.985-69.082c-29.62 0-56.87-10.351-78.332-27.613l177.817-21.707c-22.89 29.953-58.961 49.32-99.485 49.32zm16.133-113.59c.047 0 .098-.008.149-.008-3.63 5.094-9.567 8.426-16.282 8.426-11.03 0-20.007-8.972-20.007-20.004 0-9.043 6.035-16.695 14.28-19.164a23.286 23.286 0 0 0-1.011 3.938c-.992 6.117.465 12.25 4.102 17.27 4.511 6.226 11.59 9.542 18.77 9.542zm-8.23-45.699a34.912 34.912 0 0 0-7.903-.918c-19.316 0-35.03 15.715-35.03 35.031 0 19.317 15.714 35.032 35.03 35.032 18.145 0 33.11-13.868 34.86-31.56l17.894-12.839a7.47 7.47 0 0 0-.226 2.957 7.512 7.512 0 0 0 7.449 6.602c.3 0 .61-.02.918-.059l17.457-2.129a7.51 7.51 0 0 0 6.547-8.367c-.504-4.121-4.258-7.062-8.367-6.547l-15.98 1.95 29.839-21.407a26.686 26.686 0 0 0 9.012 2.164l5.308 43.488c-10.5 3.274-18.004 12.676-18.683 23.704L108.21 311.504c-3.316-10.543-12.867-17.867-23.844-18.512l-5.304-43.488c10.5-3.274 18.003-12.68 18.683-23.707l111.727-13.637zm42.797-30.703L91.934 211.375c-5.645.688-9.688 5.64-9.207 11.273.054.641.066 1.32.035 2.02-.227 5.215-4.008 9.64-9.196 10.762-.355.078-.707.144-1.054.195a10.464 10.464 0 0 0-8.856 11.672l6.293 51.543a10.465 10.465 0 0 0 11.406 9.2 13.28 13.28 0 0 1 1.063-.063c5.32-.18 10.043 3.226 11.52 8.23.199.672.347 1.336.449 1.969.816 5.152 5.23 8.812 10.34 8.812.433 0 .87-.027 1.312-.082l169.996-20.754c5.64-.687 9.688-5.64 9.207-11.277a15.624 15.624 0 0 1-.035-2.02c.227-5.214 4.012-9.64 9.203-10.761.356-.074.707-.14 1.047-.192 5.66-.859 9.55-5.988 8.856-11.672l-6.29-51.542a10.443 10.443 0 0 0-6.496-8.47l15.371-11.027 14.125 115.711-256.12 31.262-17.532-143.59 211.438-25.808zm-150.192-11.04c22.89-29.952 58.969-49.32 99.492-49.32 29.625 0 56.871 10.348 78.332 27.614zM437.82 48.34l-56.906 40.828 1.074-30.234 55.934-40.524zm-.3 87.238-29.485-8.515 56.922-41.243 28.496 9.235zm0 0" fill="#03a1dc" opacity="1" data-original="#000000" class=""></path></g></svg>