<svg xmlns="http://www.w3.org/2000/svg" version="1.1" xmlns:xlink="http://www.w3.org/1999/xlink" width="512" height="512" x="0" y="0" viewBox="0 0 60 60" style="enable-background:new 0 0 512 512" xml:space="preserve"><g><path fill="#03a1dc" fill-rule="nonzero" d="M53.439 21.382a3.966 3.966 0 0 0-3.134.117 3.923 3.923 0 0 0-1.9 1.965 18.787 18.787 0 0 1-6.366-4.092l6.97-6.97a1 1 0 0 0 1.412 0 6.848 6.848 0 0 1 4.244-1.83 1 1 0 0 0 .894-.553l4.244-8.485a1 1 0 0 0-1.338-1.34l-8.486 4.243a1 1 0 0 0-.552.894A6.857 6.857 0 0 1 47.6 9.574a1 1 0 0 0 0 1.414l-6.97 6.97a19.7 19.7 0 0 1-4.221-6.295 3.958 3.958 0 0 0 0-7.345 1.047 1.047 0 0 0-.227-.061 22.056 22.056 0 0 0-4.687-1.27 33.221 33.221 0 0 0-9.72.356c-4.4.617-8.56 1.2-13.929-1.106A18.234 18.234 0 0 1 4.816.611a3 3 0 0 0-3.683 4.733 23.115 23.115 0 0 0 3.791 2.4l22.957 22.961L15.356 43.23l-5.29 1.058A5.979 5.979 0 0 0 7 45.928L.293 52.636a1 1 0 0 0 .565 1.7l2.971.424-2.536 2.533a1 1 0 1 0 1.414 1.414l2.536-2.536.424 2.971a1 1 0 0 0 1.697.565L14.071 53a5.98 5.98 0 0 0 1.641-3.066l1.059-5.291L29.3 32.119l22.895 22.9a23.048 23.048 0 0 0 2.465 3.855 3 3 0 0 0 4.81-3.574.764.764 0 0 0-.041-.054 19.848 19.848 0 0 1-2.787-6.481c-.911-3.71-.459-7.07.019-10.626.6-4.481 1.226-9.114-.98-14.547a3.983 3.983 0 0 0-2.242-2.21zM51.4 5.964l5.28-2.639L54.036 8.6a8.663 8.663 0 0 0-4.257 1.737l-.12-.12A8.654 8.654 0 0 0 51.4 5.964zM3.121 52.636l5.294-5.294a3.984 3.984 0 0 1 2.044-1.093l2.348-.47L5.6 52.99zm10.63-3.094a3.979 3.979 0 0 1-1.094 2.043l-5.293 5.293-.353-2.478 7.21-7.21zm34.327-24.079c.041.455.161.9.354 1.313.463.977.8 2.009 1 3.071a9.343 9.343 0 0 0-3.548-3.055 29.162 29.162 0 0 1-6.664-4.6l1.41-1.411a20.253 20.253 0 0 0 7.448 4.682zM37.8 20.789a29.7 29.7 0 0 1-4.849-6.937 9.094 9.094 0 0 0-2.651-3.247 12.7 12.7 0 0 1 2.93.965 3.98 3.98 0 0 0 1.129.322 20.858 20.858 0 0 0 4.855 7.481zm-8.5 8.5L9.644 9.64c4.715 1.426 8.967 1.118 12.719.841 1.2-.088 2.349-.167 3.467-.2 1.6.683 4.245 2.107 5.3 4.4a31.5 31.5 0 0 0 5.248 7.518zM2.007 3.111a1.006 1.006 0 0 1 1.671-.856 20.01 20.01 0 0 0 3.373 1.82c5.88 2.528 10.512 1.878 15 1.249 3.02-.57 6.11-.69 9.165-.356 1.509.219 2.986.617 4.4 1.186l.048.02a1.962 1.962 0 0 1-.017 3.644 1.958 1.958 0 0 1-1.555-.056 16.693 16.693 0 0 0-7.424-1.5c-1.46 0-2.937.108-4.445.22-3.787.279-7.7.568-12.116-.794a23.966 23.966 0 0 1-7.73-3.909.993.993 0 0 1-.37-.668zm28.7 27.594 7.1-7.1a31.04 31.04 0 0 0 7.248 5c2.5 1.146 3.967 4.133 4.653 5.938a111.938 111.938 0 0 1-.215 3.608c-.065.932-.135 1.926-.2 3a27.607 27.607 0 0 0 1.071 9.211zm23.966 7.163c-.483 3.585-.982 7.292.017 11.357a22.26 22.26 0 0 0 3.017 6.995.99.99 0 0 0 .113.216 1 1 0 0 1-1.6 1.188 24.647 24.647 0 0 1-4.93-16.358c.063-1.06.132-2.046.2-2.971.36-5.119.6-8.5-1.25-12.379a1.959 1.959 0 1 1 3.586-1.576c2.004 4.941 1.443 9.112.849 13.528z" opacity="1" data-original="#000000"></path></g></svg>